<svg xmlns="http://www.w3.org/2000/svg" fill="none" viewBox="9.39 8.87 36.92 39.05">
<path d="M15.3221 21.5057C14.8542 21.9401 14.9244 22.7378 15.4674 23.0777C15.8511 23.3168 14.7221 23.2996 27.5408 23.2932C34.7188 23.299 38.1791 23.2537 38.3429 23.1656C39.0132 22.7872 39.056 21.7937 38.434 21.3647C38.1546 21.1858 36.9687 21.1619 27.0479 21.1634C20.9495 21.155 15.8746 21.1809 15.7614 21.2113C15.6511 21.2519 15.4516 21.3716 15.3221 21.5057Z" fill="url(#paint0_linear_20_478)"/>
<path d="M15.2284 25.9333C14.7895 26.5586 15.1369 27.4033 15.8751 27.5253C16.0822 27.558 21.171 27.5835 27.189 27.5804C34.664 27.5838 38.2018 27.5398 38.3731 27.4386C38.7008 27.2625 38.9819 26.6244 38.891 26.2846C38.7504 25.7596 38.2932 25.4519 37.6526 25.4471C34.6531 25.402 15.9515 25.4635 15.7355 25.5215C15.5915 25.5601 15.3544 25.7451 15.2284 25.9333Z" fill="url(#paint1_linear_20_478)"/>
<path d="M15.2093 30.1865C14.8128 30.7232 15.0696 31.5591 15.6981 31.7657C16.0721 31.886 22.0257 31.8892 22.4783 31.7678C22.7251 31.7016 22.8854 31.5593 23.0463 31.2955C23.3372 30.7761 23.2124 30.2689 22.7086 29.9516C22.3771 29.7426 21.9971 29.7232 19.2308 29.7258C17.5209 29.721 15.9667 29.7627 15.7713 29.8151C15.5758 29.8675 15.3229 30.0346 15.2093 30.1865Z" fill="url(#paint2_linear_20_478)"/>
<path d="M26.2715 30.0001C25.4987 30.737 26.0564 31.9557 27.1002 31.8192C27.4842 31.7713 27.5761 31.7026 27.8027 31.3549C28.0218 31.0203 28.0504 30.8802 27.9539 30.5199C27.7528 29.7684 26.8052 29.4818 26.2715 30.0001Z" fill="url(#paint3_linear_20_478)"/>
<path fill-rule="evenodd" clip-rule="evenodd" d="M23.8219 8.88069C28.9684 8.88883 35.2969 8.89884 36.6353 8.87217L43.0363 8.87217C44.9591 8.88596 45.3785 8.93069 45.5886 9.06588C45.9936 9.34344 46.0861 9.77105 46.0851 11.2499L46.2653 20.804C46.2663 20.7996 46.2856 20.795 46.3193 20.7903L46.2655 20.8048L46.2653 20.8047L46.2653 20.8048L46.2653 20.8048L46.2655 20.8055C46.2977 20.9936 46.0937 39.7379 46.0523 40.0354C46.0319 40.2064 45.9252 40.4667 45.7985 40.611C45.6821 40.7526 44.0441 42.4167 42.1567 44.3021C39.7486 46.7134 38.6373 47.7508 38.4111 47.8114C38.1361 47.8962 35.2074 47.9093 22.6156 47.899C21.1382 47.8981 19.8419 47.9147 19.8419 47.9147C19.8419 47.9147 15.616 47.9005 13.7305 47.8987C9.90797 47.9088 9.69804 47.8658 9.50237 47.1348C9.38386 46.6921 9.34988 10.2448 9.4672 9.69478C9.54633 9.3315 9.83264 9.00093 10.1515 8.91542C10.244 8.89059 13.7565 8.8754 17.9563 8.87448C19.2071 8.87339 21.3816 8.87683 23.8219 8.88069ZM19.8419 47.9147C19.8539 47.9145 19.8539 47.916 19.8439 47.9204L19.8432 47.9204L19.8419 47.9147ZM36.1678 11.0032L25.6786 11.0032L25.6786 11.014C24.6201 11.0019 21.9178 10.995 18.8443 10.9976C17.9699 10.9983 17.128 10.9993 16.3476 11.0002L16.3441 11.0002L16.3364 11.0002L16.3331 11.0002L16.3327 11.0002C13.6586 11.0034 11.7102 11.0056 11.6561 10.9945C11.5786 10.9933 11.5141 10.9995 11.5196 11.0201C11.5251 11.0407 11.5297 18.8405 11.5294 28.3519C11.5291 37.8633 11.5364 45.6735 11.5474 45.7147C11.5557 45.7455 12.2924 45.7797 13.1936 45.7697C14.587 45.7616 21.0842 45.7628 28.328 45.7641L28.3412 45.7641L28.351 45.7641L28.3586 45.7641L28.3645 45.7641L32.2191 45.7647C34.82 45.7623 36.9682 45.7158 36.9983 45.6636C37.0284 45.6114 37.0502 44.2925 37.0449 42.7491C37.0396 41.2058 37.0729 39.8066 37.1036 39.6328C37.1656 39.3293 37.4931 38.9877 37.8119 38.9022C37.9045 38.8774 39.3195 38.8509 40.9389 38.8469C42.5583 38.8429 43.9088 38.8228 43.9211 38.7864C43.9813 38.682 43.9565 11.0815 43.8913 11.0438C43.8687 11.0239 42.7849 11.0108 41.3039 11.0069L41.3039 11.0032L39.0089 11.0032L36.1729 10.9954L36.1678 11.0032ZM42.2769 41.0038C42.3291 41.034 41.6824 41.7481 40.8391 42.5922C39.9958 43.4363 39.2839 44.1127 39.2448 44.0901C39.2057 44.0675 39.1762 43.5457 39.1762 42.9278C39.1754 42.7452 39.1743 42.5579 39.1732 42.3785L39.1732 42.3776L39.1731 42.367L39.1731 42.3644C39.1705 41.9324 39.1682 41.5478 39.1709 41.3845L39.1643 40.989L40.6801 40.9687C41.5066 40.9677 42.2275 40.984 42.2769 41.0038Z" fill="url(#paint4_linear_20_478)"/>
<defs>
<linearGradient id="paint0_linear_20_478" x1="37.7262" y1="23.507" x2="25.211" y2="21.4253" gradientUnits="userSpaceOnUse">
<stop offset="1" stop-color="#CA054D"/>
</linearGradient>
<linearGradient id="paint1_linear_20_478" x1="37.7603" y1="27.7793" x2="25.2455" y2="25.681" gradientUnits="userSpaceOnUse">
<stop offset="1" stop-color="#CA054D"/>
</linearGradient>
<linearGradient id="paint2_linear_20_478" x1="22.9619" y1="31.7198" x2="18.4135" y2="31.4407" gradientUnits="userSpaceOnUse">
<stop offset="1" stop-color="#CA054D"/>
</linearGradient>
<linearGradient id="paint3_linear_20_478" x1="28.1097" y1="31.6165" x2="26.8762" y2="31.7559" gradientUnits="userSpaceOnUse">
<stop offset="1" stop-color="#CA054D"/>
</linearGradient>
<linearGradient id="paint4_linear_20_478" x1="31.5465" y1="56.9588" x2="26.0031" y2="39.3667" gradientUnits="userSpaceOnUse">
<stop stop-color="#4F6272"/>
<stop offset="1" stop-color="#CA054D"/>
</linearGradient>
</defs>
</svg>
