<svg width="163" height="40" viewBox="0 0 163 40" fill="none" xmlns="http://www.w3.org/2000/svg">
<path d="M11.1431 15.6258C10.8028 15.9414 10.8539 16.521 11.2487 16.768C11.5278 16.9417 10.7067 16.9293 20.0294 16.9246C25.2498 16.9288 27.7663 16.8959 27.8855 16.8319C28.373 16.5569 28.4041 15.8351 27.9518 15.5233C27.7486 15.3934 26.8861 15.376 19.6709 15.3771C15.2358 15.371 11.5449 15.3898 11.4626 15.4119C11.3823 15.4414 11.2373 15.5284 11.1431 15.6258Z" fill="url(#paint0_linear_0_1)"/>
<path d="M11.0751 18.8428C10.7559 19.2972 11.0086 19.9109 11.5454 19.9996C11.6961 20.0233 15.397 20.0419 19.7737 20.0396C25.2101 20.0421 27.783 20.0101 27.9076 19.9366C28.1459 19.8086 28.3504 19.3449 28.2843 19.0981C28.182 18.7166 27.8495 18.493 27.3836 18.4896C25.2022 18.4568 11.601 18.5015 11.4439 18.5436C11.3392 18.5717 11.1667 18.7061 11.0751 18.8428Z" fill="url(#paint1_linear_0_1)"/>
<path d="M11.0613 21.9331C10.773 22.323 10.9598 22.9304 11.4169 23.0805C11.6889 23.168 16.0188 23.1703 16.3479 23.0821C16.5274 23.034 16.644 22.9306 16.761 22.7389C16.9726 22.3615 16.8818 21.993 16.5154 21.7625C16.2743 21.6106 15.9979 21.5965 13.9861 21.5984C12.7425 21.5949 11.6122 21.6252 11.4701 21.6632C11.3279 21.7013 11.144 21.8228 11.0613 21.9331Z" fill="url(#paint2_linear_0_1)"/>
<path d="M19.1063 21.7978C18.5443 22.3332 18.9499 23.2187 19.709 23.1195C19.9883 23.0848 20.0551 23.0348 20.2199 22.7822C20.3792 22.5391 20.4001 22.4373 20.3299 22.1755C20.1836 21.6294 19.4945 21.4212 19.1063 21.7978Z" fill="url(#paint3_linear_0_1)"/>
<path fill-rule="evenodd" clip-rule="evenodd" d="M17.3252 6.45243C21.0588 6.45833 25.6477 6.46558 26.6366 6.44638L31.3188 6.44638C32.7004 6.45656 33.0032 6.48922 33.1554 6.58699C33.4499 6.78866 33.5171 7.09936 33.5164 8.17385L33.6475 15.1157C33.6482 15.1126 33.6621 15.1093 33.6863 15.1059L33.6475 15.1163L33.6474 15.1163L33.6477 15.1175C33.6706 15.2895 33.5227 28.8732 33.4926 29.0891C33.4778 29.2133 33.4002 29.4024 33.308 29.5073C33.2233 29.6102 32.0321 30.8193 30.6594 32.1892C28.9081 33.9412 28.0999 34.6949 27.9353 34.739C27.7354 34.8006 25.6054 34.8102 16.4477 34.8027C15.3732 34.802 14.4304 34.8141 14.4304 34.8141C14.4304 34.8141 11.3571 34.8038 9.9858 34.8024C7.2058 34.8097 7.05312 34.7785 6.91081 34.2474C6.82463 33.9258 6.79991 7.44361 6.88523 7.04394C6.94278 6.77998 7.15101 6.53979 7.38289 6.47766C7.45022 6.45962 10.0047 6.44858 13.0591 6.44792C13.9687 6.44713 15.5501 6.44963 17.3246 6.45243L17.3251 6.45243L17.3252 6.45243ZM14.4304 34.8141C14.4392 34.8139 14.4392 34.815 14.4319 34.8182L14.4314 34.8182L14.4304 34.8141ZM26.3038 7.99468L18.6754 7.99468L18.6754 8.00248C17.9056 7.99367 15.9402 7.98866 13.705 7.99055C13.0652 7.99109 12.4494 7.9918 11.879 7.99247C9.9338 7.99473 8.51651 7.99638 8.47715 7.98832C8.42078 7.98739 8.3739 7.99194 8.37791 8.0069C8.38191 8.02186 8.38521 13.6891 8.385 20.6C8.38479 27.5109 8.39009 33.1856 8.3981 33.2155C8.40412 33.238 8.9399 33.2628 9.59536 33.2555C10.6089 33.2496 15.3357 33.2505 20.6051 33.2514L20.613 33.2514L20.6207 33.2514L20.6266 33.2514L20.6278 33.2514L20.6307 33.2514L23.4321 33.2519C25.3236 33.2501 26.886 33.2163 26.9079 33.1784C26.9298 33.1405 26.9456 32.1822 26.9417 31.0608C26.9379 29.9394 26.9621 28.9228 26.9844 28.7965C27.0295 28.576 27.2677 28.3278 27.4996 28.2657C27.5669 28.2476 28.596 28.2284 29.7737 28.2255C30.9515 28.2226 31.9337 28.208 31.9426 28.1815C31.9864 28.1057 31.9684 8.05149 31.921 8.02411C31.9045 8.00967 31.1163 8.00013 30.0393 7.99732L30.0393 7.99468L28.4015 7.99468L26.3075 7.98893L26.3038 7.99468ZM30.7468 29.7927C30.7848 29.8146 30.3145 30.3335 29.7012 30.9468C29.0878 31.5601 28.5701 32.0515 28.5417 32.0351C28.5132 32.0187 28.4918 31.6396 28.4918 31.1906C28.4912 31.0544 28.4903 30.9147 28.4895 30.7812C28.4876 30.4674 28.486 30.1879 28.4879 30.0693L28.4831 29.7819L29.5855 29.7672C30.1866 29.7664 30.7109 29.7783 30.7468 29.7927Z" fill="url(#paint4_linear_0_1)"/>
<path d="M55.0064 10.3636V30H52.2834L42.3022 15.5987H42.12V30H39.1573V10.3636H41.8995L51.8903 24.7841H52.0724V10.3636H55.0064ZM65.3016 30.2972C63.9209 30.2972 62.716 29.9808 61.6869 29.348C60.6578 28.7152 59.8588 27.8299 59.2899 26.6921C58.721 25.5543 58.4365 24.2248 58.4365 22.7035C58.4365 21.1758 58.721 19.8398 59.2899 18.6957C59.8588 17.5515 60.6578 16.663 61.6869 16.0302C62.716 15.3974 63.9209 15.081 65.3016 15.081C66.6823 15.081 67.8872 15.3974 68.9163 16.0302C69.9454 16.663 70.7444 17.5515 71.3133 18.6957C71.8822 19.8398 72.1666 21.1758 72.1666 22.7035C72.1666 24.2248 71.8822 25.5543 71.3133 26.6921C70.7444 27.8299 69.9454 28.7152 68.9163 29.348C67.8872 29.9808 66.6823 30.2972 65.3016 30.2972ZM65.3112 27.8906C66.2061 27.8906 66.9475 27.6541 67.5356 27.1811C68.1237 26.7081 68.5583 26.0785 68.8396 25.2923C69.1272 24.506 69.271 23.6399 69.271 22.6939C69.271 21.7543 69.1272 20.8913 68.8396 20.1051C68.5583 19.3125 68.1237 18.6765 67.5356 18.1971C66.9475 17.7177 66.2061 17.478 65.3112 17.478C64.4099 17.478 63.662 17.7177 63.0676 18.1971C62.4795 18.6765 62.0416 19.3125 61.754 20.1051C61.4727 20.8913 61.3321 21.7543 61.3321 22.6939C61.3321 23.6399 61.4727 24.506 61.754 25.2923C62.0416 26.0785 62.4795 26.7081 63.0676 27.1811C63.662 27.6541 64.4099 27.8906 65.3112 27.8906ZM82.2413 15.2727V17.5739H74.1969V15.2727H82.2413ZM76.3542 11.7443H79.2211V25.6758C79.2211 26.2319 79.3042 26.6506 79.4703 26.9318C79.6365 27.2067 79.8507 27.3952 80.1127 27.4975C80.3812 27.5934 80.6721 27.6413 80.9853 27.6413C81.2154 27.6413 81.4167 27.6254 81.5893 27.5934C81.7619 27.5614 81.8961 27.5359 81.992 27.5167L82.5098 29.8849C82.3436 29.9489 82.1071 30.0128 81.8002 30.0767C81.4934 30.147 81.1099 30.1854 80.6497 30.1918C79.8954 30.2045 79.1923 30.0703 78.5403 29.7891C77.8883 29.5078 77.361 29.0732 76.9583 28.4851C76.5556 27.897 76.3542 27.1587 76.3542 26.2702V11.7443ZM91.6017 30.2972C90.1507 30.2972 88.901 29.9872 87.8527 29.3672C86.8108 28.7408 86.0054 27.8619 85.4365 26.7305C84.874 25.5927 84.5928 24.2599 84.5928 22.7322C84.5928 21.2237 84.874 19.8942 85.4365 18.7436C86.0054 17.593 86.798 16.695 87.8144 16.0494C88.8371 15.4038 90.0324 15.081 91.4003 15.081C92.2313 15.081 93.0367 15.2184 93.8165 15.4933C94.5963 15.7681 95.2963 16.1996 95.9163 16.7876C96.5363 17.3757 97.0253 18.1396 97.3833 19.0792C97.7412 20.0124 97.9202 21.147 97.9202 22.483V23.4993H86.2132V21.3516H95.1109C95.1109 20.5973 94.9575 19.9293 94.6507 19.3477C94.3438 18.7596 93.9124 18.2962 93.3563 17.9574C92.8066 17.6186 92.161 17.4492 91.4195 17.4492C90.6141 17.4492 89.911 17.6474 89.3101 18.0437C88.7156 18.4336 88.2554 18.945 87.9294 19.5778C87.6098 20.2042 87.45 20.8849 87.45 21.62V23.2979C87.45 24.2823 87.6226 25.1197 87.9678 25.81C88.3193 26.5004 88.8083 27.0277 89.4347 27.392C90.0612 27.75 90.7931 27.929 91.6304 27.929C92.1737 27.929 92.6691 27.8523 93.1166 27.6989C93.564 27.5391 93.9507 27.3026 94.2767 26.9893C94.6027 26.6761 94.852 26.2894 95.0246 25.8292L97.738 26.3182C97.5207 27.1172 97.1308 27.8171 96.5683 28.418C96.0122 29.0124 95.3122 29.4759 94.4685 29.8082C93.6311 30.1342 92.6755 30.2972 91.6017 30.2972ZM112.041 15.522C111.939 14.6143 111.517 13.9112 110.775 13.4126C110.034 12.9077 109.101 12.6552 107.976 12.6552C107.17 12.6552 106.474 12.783 105.885 13.0387C105.297 13.288 104.84 13.6332 104.514 14.0742C104.195 14.5089 104.035 15.0043 104.035 15.5604C104.035 16.027 104.144 16.4297 104.361 16.7685C104.585 17.1072 104.876 17.3917 105.233 17.6218C105.598 17.8455 105.988 18.0341 106.403 18.1875C106.819 18.3345 107.218 18.456 107.602 18.5518L109.519 19.0504C110.146 19.2038 110.788 19.4116 111.447 19.6737C112.105 19.9357 112.715 20.2809 113.278 20.7092C113.84 21.1374 114.294 21.668 114.639 22.3008C114.991 22.9336 115.167 23.6911 115.167 24.5732C115.167 25.6854 114.879 26.6729 114.304 27.5359C113.735 28.3988 112.907 29.0795 111.82 29.5781C110.74 30.0767 109.433 30.326 107.899 30.326C106.429 30.326 105.157 30.0927 104.083 29.6261C103.009 29.1594 102.169 28.4979 101.561 27.6413C100.954 26.7784 100.618 25.7557 100.555 24.5732H103.527C103.584 25.2827 103.814 25.8739 104.217 26.3469C104.626 26.8136 105.147 27.1619 105.78 27.392C106.419 27.6158 107.119 27.7276 107.88 27.7276C108.717 27.7276 109.462 27.5966 110.114 27.3345C110.772 27.0661 111.29 26.6953 111.667 26.2223C112.044 25.7429 112.233 25.1836 112.233 24.5444C112.233 23.9627 112.067 23.4865 111.734 23.1158C111.408 22.745 110.964 22.4382 110.401 22.1953C109.845 21.9524 109.216 21.7383 108.513 21.5529L106.192 20.9201C104.62 20.4918 103.373 19.8622 102.453 19.0312C101.539 18.2003 101.082 17.1009 101.082 15.733C101.082 14.6016 101.389 13.614 102.002 12.7702C102.616 11.9265 103.447 11.2713 104.495 10.8047C105.544 10.3317 106.726 10.0952 108.043 10.0952C109.372 10.0952 110.545 10.3285 111.562 10.7951C112.584 11.2617 113.39 11.9041 113.978 12.7223C114.566 13.5341 114.873 14.4673 114.898 15.522H112.041ZM120.289 35.5227C119.861 35.5227 119.471 35.4876 119.119 35.4173C118.768 35.3533 118.506 35.283 118.333 35.2063L119.024 32.8572C119.548 32.9979 120.014 33.0586 120.423 33.0394C120.832 33.0202 121.194 32.8668 121.507 32.5792C121.826 32.2915 122.108 31.8217 122.351 31.1697L122.705 30.1918L117.317 15.2727H120.385L124.115 26.7017H124.268L127.998 15.2727H131.076L125.006 31.9656C124.725 32.7326 124.367 33.3814 123.933 33.9119C123.498 34.4489 122.98 34.8516 122.379 35.12C121.778 35.3885 121.082 35.5227 120.289 35.5227ZM136.637 21.2557V30H133.77V15.2727H136.522V17.6697H136.704C137.043 16.8899 137.573 16.2635 138.296 15.7905C139.024 15.3175 139.941 15.081 141.047 15.081C142.051 15.081 142.93 15.2919 143.684 15.7138C144.438 16.1293 145.023 16.7493 145.439 17.5739C145.854 18.3984 146.062 19.418 146.062 20.6325V30H143.195V20.9776C143.195 19.9102 142.917 19.076 142.361 18.4751C141.805 17.8679 141.041 17.5643 140.069 17.5643C139.405 17.5643 138.813 17.7081 138.296 17.9957C137.784 18.2834 137.378 18.7053 137.078 19.2614C136.784 19.8111 136.637 20.4759 136.637 21.2557ZM156.11 30.2972C154.685 30.2972 153.457 29.9744 152.428 29.3288C151.406 28.6768 150.619 27.7788 150.07 26.6346C149.52 25.4904 149.245 24.18 149.245 22.7035C149.245 21.2077 149.526 19.8878 150.089 18.7436C150.651 17.593 151.444 16.695 152.467 16.0494C153.489 15.4038 154.694 15.081 156.081 15.081C157.2 15.081 158.197 15.2887 159.073 15.7042C159.949 16.1133 160.655 16.6886 161.192 17.43C161.735 18.1715 162.058 19.0376 162.16 20.0284H159.37C159.217 19.3381 158.865 18.7436 158.315 18.245C157.772 17.7464 157.043 17.4972 156.129 17.4972C155.33 17.4972 154.63 17.7081 154.03 18.13C153.435 18.5455 152.972 19.1399 152.639 19.9134C152.307 20.6804 152.141 21.5881 152.141 22.6364C152.141 23.7102 152.304 24.6371 152.63 25.4169C152.956 26.1967 153.416 26.8008 154.01 27.229C154.611 27.6573 155.318 27.8714 156.129 27.8714C156.673 27.8714 157.165 27.7724 157.606 27.5742C158.053 27.3697 158.427 27.0788 158.728 26.7017C159.035 26.3246 159.249 25.8707 159.37 25.3402H162.16C162.058 26.2926 161.748 27.1428 161.23 27.8906C160.712 28.6385 160.019 29.2266 159.15 29.6548C158.287 30.0831 157.274 30.2972 156.11 30.2972Z" fill="#131313"/>
<defs>
<linearGradient id="paint0_linear_0_1" x1="27.437" y1="17.0799" x2="18.3355" y2="15.5646" gradientUnits="userSpaceOnUse">
<stop offset="1" stop-color="#CA054D"/>
</linearGradient>
<linearGradient id="paint1_linear_0_1" x1="27.462" y1="20.1841" x2="18.3608" y2="18.6567" gradientUnits="userSpaceOnUse">
<stop offset="1" stop-color="#CA054D"/>
</linearGradient>
<linearGradient id="paint2_linear_0_1" x1="16.6996" y1="23.0472" x2="13.3917" y2="22.844" gradientUnits="userSpaceOnUse">
<stop offset="1" stop-color="#CA054D"/>
</linearGradient>
<linearGradient id="paint3_linear_0_1" x1="20.4432" y1="22.9723" x2="19.5462" y2="23.0737" gradientUnits="userSpaceOnUse">
<stop offset="1" stop-color="#CA054D"/>
</linearGradient>
<linearGradient id="paint4_linear_0_1" x1="22.9429" y1="41.3854" x2="18.9182" y2="28.601" gradientUnits="userSpaceOnUse">
<stop stop-color="#4F6272"/>
<stop offset="1" stop-color="#CA054D"/>
</linearGradient>
</defs>
</svg>
