<svg width="80" height="80" viewBox="0 0 80 80" fill="none" xmlns="http://www.w3.org/2000/svg">
<circle cx="40" cy="40" r="40" fill="white"/>
<g clip-path="url(#clip0_101_175)">
<path d="M22.9587 30.6925C22.3242 31.2815 22.4194 32.3631 23.1557 32.824C23.676 33.1482 22.1451 33.1249 39.5264 33.1162C49.2593 33.1241 53.9512 33.0626 54.1733 32.9432C55.0822 32.4301 55.1402 31.083 54.2969 30.5013C53.918 30.2587 52.31 30.2263 38.8581 30.2283C30.5891 30.2169 23.7078 30.2521 23.5544 30.2933C23.4048 30.3483 23.1343 30.5106 22.9587 30.6925Z" fill="url(#paint0_linear_101_175)"/>
<path d="M22.8318 36.696C22.2367 37.5438 22.7077 38.6892 23.7087 38.8546C23.9895 38.899 30.8896 38.9335 39.0496 38.9293C49.1852 38.9339 53.9822 38.8743 54.2145 38.7371C54.6588 38.4983 55.0399 37.6331 54.9167 37.1723C54.726 36.4605 54.1061 36.0432 53.2375 36.0367C49.1704 35.9756 23.8123 36.059 23.5194 36.1376C23.3242 36.1899 23.0027 36.4408 22.8318 36.696Z" fill="url(#paint1_linear_101_175)"/>
<path d="M22.8059 42.463C22.2683 43.1908 22.6165 44.3242 23.4687 44.6043C23.9758 44.7674 32.0485 44.7718 32.6622 44.6072C32.9968 44.5174 33.2142 44.3245 33.4324 43.9668C33.8268 43.2625 33.6576 42.5748 32.9745 42.1445C32.525 41.8611 32.0097 41.8348 28.2588 41.8384C25.9403 41.8318 23.8329 41.8884 23.568 41.9594C23.3029 42.0305 22.96 42.2571 22.8059 42.463Z" fill="url(#paint2_linear_101_175)"/>
<path d="M37.8055 42.2103C36.7576 43.2095 37.5138 44.8619 38.9291 44.6769C39.4498 44.6119 39.5744 44.5188 39.8817 44.0473C40.1788 43.5936 40.2175 43.4036 40.0867 42.9151C39.814 41.8961 38.5291 41.5075 37.8055 42.2103Z" fill="url(#paint3_linear_101_175)"/>
<path fill-rule="evenodd" clip-rule="evenodd" d="M34.4842 13.5739C41.4625 13.585 50.0436 13.5985 51.8583 13.5624H60.5377C63.1449 13.5811 63.7135 13.6417 63.9984 13.825C64.5476 14.2014 64.673 14.7812 64.6716 16.7864L64.916 29.7411C64.9173 29.7352 64.9435 29.7289 64.9892 29.7225L64.916 29.7411L64.9162 29.7431C64.9599 29.9982 64.6833 55.4142 64.6272 55.8176C64.5995 56.0495 64.4548 56.4024 64.283 56.5981C64.1252 56.7901 61.9042 59.0465 59.345 61.6029C56.0798 64.8725 54.5729 66.2792 54.2662 66.3613C53.8933 66.4763 49.9222 66.4941 32.8486 66.4801C30.8453 66.4789 29.0876 66.5014 29.0876 66.5014C29.0876 66.5014 23.3576 66.4821 20.801 66.4797C15.6179 66.4934 15.3332 66.4351 15.0679 65.4439C14.9072 64.8436 14.8612 15.4236 15.0202 14.6778C15.1275 14.1852 15.5158 13.737 15.9481 13.621C16.0735 13.5873 20.8362 13.5667 26.5309 13.5655C28.2269 13.564 31.1754 13.5687 34.4842 13.5739ZM29.0876 66.5014C29.1039 66.5011 29.1039 66.5031 29.0903 66.5091L29.0876 66.5014ZM51.2244 16.4519H37.0018V16.4665C35.5665 16.4501 31.9024 16.4408 27.735 16.4443C26.5493 16.4452 25.4078 16.4466 24.3496 16.4478H24.3449H24.3344H24.3299C20.704 16.4522 18.0616 16.4551 17.9882 16.4401C17.8832 16.4385 17.7957 16.4469 17.8032 16.4748C17.8106 16.5027 17.8169 27.0787 17.8164 39.9756C17.816 52.8724 17.8259 63.4625 17.8409 63.5183C17.8521 63.5601 18.851 63.6065 20.073 63.5929C21.9623 63.5819 30.7721 63.5836 40.5942 63.5853H40.6121H40.6254H40.6357H40.6437L45.8703 63.5861C49.3969 63.5829 52.3097 63.5198 52.3505 63.4491C52.3914 63.3783 52.4209 61.5899 52.4137 59.4972C52.4065 57.4046 52.4517 55.5074 52.4933 55.2717C52.5774 54.8602 53.0215 54.397 53.4537 54.281C53.5793 54.2474 55.4979 54.2115 57.6937 54.2061C59.8895 54.2006 61.7207 54.1734 61.7374 54.124C61.819 53.9825 61.7854 16.5581 61.697 16.5069C61.6663 16.48 60.1968 16.4622 58.1887 16.4569V16.4519H55.0768L51.2314 16.4413L51.2244 16.4519ZM59.508 57.1307C59.5788 57.1716 58.7019 58.1399 57.5584 59.2844C56.415 60.429 55.4497 61.3461 55.3967 61.3155C55.3436 61.2848 55.3036 60.5773 55.3036 59.7395C55.3025 59.4919 55.3011 59.2379 55.2996 58.9947L55.2994 58.9791V58.9756C55.2959 58.3898 55.2928 57.8683 55.2964 57.6469L55.2875 57.1106L57.3428 57.0831C58.4635 57.0817 59.441 57.1038 59.508 57.1307Z" fill="url(#paint4_linear_101_175)"/>
</g>
<defs>
<linearGradient id="paint0_linear_101_175" x1="53.3371" y1="33.4061" x2="36.3674" y2="30.5834" gradientUnits="userSpaceOnUse">
<stop offset="1" stop-color="#CA054D"/>
</linearGradient>
<linearGradient id="paint1_linear_101_175" x1="53.3835" y1="39.199" x2="36.4143" y2="36.3539" gradientUnits="userSpaceOnUse">
<stop offset="1" stop-color="#CA054D"/>
</linearGradient>
<linearGradient id="paint2_linear_101_175" x1="33.3179" y1="44.5421" x2="27.1506" y2="44.1636" gradientUnits="userSpaceOnUse">
<stop offset="1" stop-color="#CA054D"/>
</linearGradient>
<linearGradient id="paint3_linear_101_175" x1="40.298" y1="44.402" x2="38.6254" y2="44.591" gradientUnits="userSpaceOnUse">
<stop offset="1" stop-color="#CA054D"/>
</linearGradient>
<linearGradient id="paint4_linear_101_175" x1="44.9583" y1="78.7646" x2="37.4418" y2="54.9109" gradientUnits="userSpaceOnUse">
<stop stop-color="#4F6272"/>
<stop offset="1" stop-color="#CA054D"/>
</linearGradient>
<clipPath id="clip0_101_175">
<rect width="50.061" height="52.9492" fill="white" transform="translate(14.9153 13.5593)"/>
</clipPath>
</defs>
</svg>
